#!OML:ASF F:\VICON\USERDATA\INSTALL\rory3\rory3.ASF
:FULLY-SPECIFIED
:DEGREES
3442
root -1.95224 17.5148 2.80862 6.17505 -0.390684 3.02505
lowerback 9.22177 -0.719502 2.03226
upperback 0.912937 -0.544746 4.53398
thorax -4.20191 -0.268595 3.65402
lowerneck -31.0569 -11.1331 -8.46632
upperneck 4.26118 -12.7602 9.66376
head 7.1937 -5.36861 2.64732
rclavicle 3.97569e-015 -6.36111e-014
rhumerus 57.054 -35.6599 -43.2526
rradius 38.5589
rwrist 11.5142
rhand -56.8635 -18.0449
rfingers 7.12502
rthumb -29.1612 -45.7808
lclavicle 3.97569e-015 -6.36111e-014
lhumerus -40.5127 8.94021 70.9039
lradius 45.1055
lwrist -1.62433
lhand -14.599 25.1937
lfingers 7.12502
lthumb 11.5515 414.855
rfemur -23.9085 -7.20201 12.9506
rtibia 40.6682
rfoot -16.4961 4.13849
rtoes 2.30957
lfemur -10.2917 -2.44367 -10.2357
ltibia 20.9698
lfoot -8.35277 17.5039
ltoes -19.3946
3443
root -1.94426 17.5149 2.80529 6.18825 -0.351633 3.02927
lowerback 9.28853 -0.652695 2.04956
upperback 0.894262 -0.445657 4.62465
thorax -4.26315 -0.218773 3.72914
lowerneck -31.2119 -11.038 -8.48136
upperneck 4.52138 -12.6076 9.48236
head 7.27495 -5.30331 2.60767
rclavicle 4.37326e-015 -4.13472e-014
rhumerus 57.3687 -35.6953 -44.2704
rradius 38.6658
rwrist 10.8518
rhand -56.7998 -17.7271
rfingers 7.12502
rthumb -29.1003 -45.4735
lclavicle 4.37326e-015 -4.13472e-014
lhumerus -40.5524 8.82577 71.1112
lradius 45.093
lwrist -1.57435
lhand -14.5308 25.2241
lfingers 7.12502
lthumb 11.6173 414.882
rfemur -23.9402 -7.19887 12.916
rtibia 40.6948
rfoot -16.5264 4.11182
rtoes 2.1902
lfemur -10.3505 -2.36342 -10.2566
ltibia 20.9922
lfoot -8.33164 17.358
ltoes -19.2074
3444
root -1.93433 17.5146 2.80095 6.1708 -0.342818 3.12936
lowerback 9.40324 -0.589866 2.00211
upperback 0.856431 -0.357995 4.65135
thorax -4.37081 -0.173745 3.77612
lowerneck -31.3525 -10.9207 -8.51678
upperneck 4.8787 -12.4295 9.32222
head 7.38922 -5.22313 2.581
rclavicle -5.56597e-015 4.77083e-015
rhumerus 57.3659 -35.7206 -44.991
rradius 38.8798
rwrist 9.97886
rhand -56.4633 -16.9872
rfingers 7.12502
rthumb -28.7789 -44.7888
lclavicle -5.56597e-015 4.77083e-015
lhumerus -40.74 8.61741 71.2579
lradius 45.2028
lwrist -1.49815
lhand -14.4744 25.0653
lfingers 7.12502
lthumb 11.6716 414.72
rfemur -23.9413 -7.23988 12.7625
rtibia 40.7184
rfoot -16.505 4.15183
rtoes 2.35524
lfemur -10.3674 -2.3374 -10.3932
ltibia 21.0214
lfoot -8.33576 17.2673
ltoes -19.1071
3445
root -1.92277 17.5141 2.79969 6.1556 -0.270217 3.31056
lowerback 9.44551 -0.556095 1.89106
upperback 0.856743 -0.322779 4.64563
thorax -4.39528 -0.154159 3.8293
lowerneck -31.3692 -10.8029 -8.47639
upperneck 4.97557 -12.2699 9.16259
head 7.39569 -5.16023 2.54764
rclavicle -1.59028e-014 -1.90833e-014
rhumerus 57.2529 -35.8207 -45.5904
rradius 39.264
rwrist 9.01449
rhand -56.1347 -17.0235
rfingers 7.12502
rthumb -28.4649 -44.878
lclavicle -1.59028e-014 -1.90833e-014
lhumerus -40.8219 8.54941 71.3651
lradius 45.2396
lwrist -1.54565
lhand -14.3581 25.1453
lfingers 7.12502
lthumb 11.7838 414.794
rfemur -23.9246 -7.39486 12.5205
rtibia 40.7517
rfoot -16.4941 4.1917
rtoes 1.92323
lfemur -10.3932 -2.30954 -10.6214
ltibia 21.0341
lfoot -8.30403 17.1023
ltoes -19.1582
3446
root -1.91068 17.5143 2.79694 6.18213 -0.150352 3.35615
lowerback 9.43791 -0.518649 1.89428
upperback 0.89358 -0.273491 4.67253
thorax -4.35502 -0.12982 3.84857
lowerneck -31.5463 -10.6844 -8.34999
upperneck 5.08969 -12.1163 8.92477
head 7.41875 -5.10102 2.47063
rclavicle 2.14687e-014 6.36111e-015
rhumerus 57.2076 -35.9907 -46.1835
rradius 39.6194
rwrist 8.20708
rhand -56.4179 -18.4625
rfingers 7.12502
rthumb -28.7356 -46.2715
lclavicle 2.14687e-014 6.36111e-015
lhumerus -40.7233 8.53218 71.4705
lradius 45.0474
lwrist -1.55733
lhand -14.4549 24.7876
lfingers 7.12502
lthumb 11.6905 414.441
rfemur -23.9251 -7.42871 12.4269
rtibia 40.7512
rfoot -16.5387 4.14887
rtoes 1.8418
lfemur -10.5104 -2.28859 -10.6828
ltibia 21.073
lfoot -8.29306 16.9246
ltoes -19.0603
3447
root -1.8989 17.5141 2.79255 6.14511 -0.0597132 3.31239
lowerback 9.52858 -0.470152 1.91866
upperback 0.92614 -0.199824 4.75137
thorax -4.37555 -0.0931006 3.90961
lowerneck -31.8146 -10.5127 -8.15861
upperneck 5.29338 -11.8994 8.57992
head 7.46809 -5.01719 2.35552
rclavicle -1.43125e-014 -2.22639e-014
rhumerus 56.9981 -36.0944 -46.519
rradius 39.9559
rwrist 7.49961
rhand -56.7801 -21.0977
rfingers 7.12502
rthumb -29.0815 -48.8474
lclavicle -1.43125e-014 -2.22639e-014
lhumerus -40.6924 8.48137 71.6239
lradius 44.89
lwrist -1.38871
lhand -14.5119 24.4951
lfingers 7.12502
lthumb 11.6355 414.152
rfemur -23.8703 -7.40168 12.4293
rtibia 40.7306
rfoot -16.5389 4.07365
rtoes 2.0266
lfemur -10.5751 -2.2784 -10.646
ltibia 21.147
lfoot -8.32448 16.7781
ltoes -18.8648
3448
root -1.88654 17.5133 2.79068 6.03277 0.0108245 3.17208
lowerback 9.66193 -0.420081 2.0202
upperback 0.943366 -0.110839 4.87109
thorax -4.43718 -0.0496463 3.96913
lowerneck -31.9387 -10.3084 -8.00952
upperneck 5.5148 -11.635 8.23075
head 7.49005 -4.91798 2.26994
rclavicle -4.37326e-015 4.13472e-014
rhumerus 56.6828 -36.1029 -46.6293
rradius 40.2491
rwrist 6.60066
rhand -56.879 -21.6167
rfingers 7.12502
rthumb -29.176 -49.35
lclavicle -4.37326e-015 4.13472e-014
lhumerus -40.8211 8.38242 71.8046
lradius 44.9005
lwrist -1.23943
lhand -14.7036 24.6941
lfingers 7.12502
lthumb 11.4507 414.361
rfemur -23.7158 -7.35058 12.5305
rtibia 40.6786
rfoot -16.5783 3.95977
rtoes 1.97985
lfemur -10.5459 -2.29276 -10.5168
ltibia 21.2526
lfoot -8.43252 16.7014
ltoes -18.8584
